<svg version="1.1" xmlns="http://www.w3.org/2000/svg" xmlns:xlink="http://www.w3.org/1999/xlink" width="545" height="188"><defs/><g><g transform="translate(-158,-246) scale(1,1)"><rect fill="#C0C0C0" stroke="none" x="175" y="366" width="127" height="61" opacity="0.2"/></g><g transform="translate(-158,-246) scale(1,1)"><rect fill="#ffffff" stroke="none" x="168" y="359" width="127" height="61"/></g><g transform="translate(-158,-246) scale(1,1)"><path fill="none" stroke="#000000" d="M 168 359 L 295 359 L 295 420 L 168 420 L 168 359 Z Z" stroke-miterlimit="10"/></g><g transform="translate(-158,-246) scale(1,1)"><path fill="none" stroke="#000000" d="M 168 384 L 295 384" stroke-miterlimit="10"/></g><g transform="translate(-158,-246) scale(1,1)"><path fill="none" stroke="#000000" d="M 168 394 L 295 394" stroke-miterlimit="10"/></g><g transform="translate(-158,-246) scale(1,1)"><g><path fill="none" stroke="none"/><text fill="#000000" stroke="none" font-family="Arial" font-size="13px" font-style="normal" font-weight="bold" text-decoration="none" x="210" y="378.5">Invoker</text></g></g><g transform="translate(-158,-246) scale(1,1)"><g><path fill="none" stroke="none"/><text fill="#000000" stroke="none" font-family="Arial" font-size="13px" font-style="normal" font-weight="normal" text-decoration="none" x="173" y="411.5">+createCommand()</text></g></g><g transform="translate(-158,-246) scale(1,1)"><rect fill="#C0C0C0" stroke="none" x="599" y="368" width="101" height="57" opacity="0.2"/></g><g transform="translate(-158,-246) scale(1,1)"><rect fill="#ffffff" stroke="none" x="592" y="361" width="101" height="57"/></g><g transform="translate(-158,-246) scale(1,1)"><path fill="none" stroke="#000000" d="M 592 361 L 693 361 L 693 418 L 592 418 L 592 361 Z Z" stroke-miterlimit="10"/></g><g transform="translate(-158,-246) scale(1,1)"><path fill="none" stroke="#000000" d="M 592 386 L 693 386" stroke-miterlimit="10"/></g><g transform="translate(-158,-246) scale(1,1)"><path fill="none" stroke="#000000" d="M 592 396 L 693 396" stroke-miterlimit="10"/></g><g transform="translate(-158,-246) scale(1,1)"><g><path fill="none" stroke="none"/><text fill="#000000" stroke="none" font-family="Arial" font-size="13px" font-style="normal" font-weight="bold" text-decoration="none" x="617" y="380.5">Receiver</text></g></g><g transform="translate(-158,-246) scale(1,1)"><g><path fill="none" stroke="none"/><text fill="#000000" stroke="none" font-family="Arial" font-size="13px" font-style="normal" font-weight="normal" text-decoration="none" x="597" y="413.5">+doSomething()</text></g></g><g transform="translate(-158,-246) scale(1,1)"><rect fill="#C0C0C0" stroke="none" x="413" y="263" width="88" height="57" opacity="0.2"/></g><g transform="translate(-158,-246) scale(1,1)"><rect fill="#ffffff" stroke="none" x="406" y="256" width="88" height="57"/></g><g transform="translate(-158,-246) scale(1,1)"><path fill="none" stroke="#000000" d="M 406 256 L 494 256 L 494 313 L 406 313 L 406 256 Z Z" stroke-miterlimit="10"/></g><g transform="translate(-158,-246) scale(1,1)"><path fill="none" stroke="#000000" d="M 406 281 L 494 281" stroke-miterlimit="10"/></g><g transform="translate(-158,-246) scale(1,1)"><path fill="none" stroke="#000000" d="M 406 291 L 494 291" stroke-miterlimit="10"/></g><g transform="translate(-158,-246) scale(1,1)"><g><path fill="none" stroke="none"/><text fill="#000000" stroke="none" font-family="Arial" font-size="13px" font-style="italic" font-weight="bold" text-decoration="none" x="417.65869140625" y="275.5">Command</text></g></g><g transform="translate(-158,-246) scale(1,1)"><g><path fill="none" stroke="none"/><text fill="#000000" stroke="none" font-family="Arial" font-size="13px" font-style="normal" font-weight="normal" text-decoration="none" x="411" y="308.5">+execute()</text></g></g><g transform="translate(-158,-246) scale(1,1)"><rect fill="#C0C0C0" stroke="none" x="374" y="361" width="166.2822265625" height="70" opacity="0.2"/></g><g transform="translate(-158,-246) scale(1,1)"><rect fill="#ffffff" stroke="none" x="367" y="354" width="166.2822265625" height="70"/></g><g transform="translate(-158,-246) scale(1,1)"><path fill="none" stroke="#000000" d="M 367 354 L 533.2822265625 354 L 533.2822265625 424 L 367 424 L 367 354 Z Z" stroke-miterlimit="10"/></g><g transform="translate(-158,-246) scale(1,1)"><path fill="none" stroke="#000000" d="M 367 379 L 533.2822265625 379" stroke-miterlimit="10"/></g><g transform="translate(-158,-246) scale(1,1)"><path fill="none" stroke="#000000" d="M 367 402 L 533.2822265625 402" stroke-miterlimit="10"/></g><g transform="translate(-158,-246) scale(1,1)"><g><path fill="none" stroke="none"/><text fill="#000000" stroke="none" font-family="Arial" font-size="13px" font-style="normal" font-weight="bold" text-decoration="none" x="381.64111328125" y="373.5">DoSomethingCommand</text></g></g><g transform="translate(-158,-246) scale(1,1)"><g><path fill="none" stroke="none"/><text fill="#000000" stroke="none" font-family="Arial" font-size="13px" font-style="normal" font-weight="normal" text-decoration="none" x="372" y="396.5">+receiver: Receiver</text></g></g><g transform="translate(-158,-246) scale(1,1)"><g><path fill="none" stroke="none"/><text fill="#000000" stroke="none" font-family="Arial" font-size="13px" font-style="normal" font-weight="normal" text-decoration="none" x="372" y="419.5">+execute()</text></g></g><g transform="translate(-158,-246) scale(1,1)"><path fill="none" stroke="#000000" d="M 450 353 L 450 314" stroke-miterlimit="10"/></g><g transform="translate(-158,-246) scale(1,1)"><path fill="#FFFFFF" stroke="none" d="M 458.419035512032 334.3253497152483 L 450 314 L 441.580964487968 334.3253497152483"/></g><g transform="translate(-158,-246) scale(1,1)"><path fill="none" stroke="#000000" d="M 458.419035512032 334.3253497152483 L 450 314 L 441.580964487968 334.3253497152483 L 458.419035512032 334.3253497152483" stroke-miterlimit="10"/></g><g transform="translate(-158,-246) scale(1,1)"><path fill="none" stroke="#000000" d="M 534 389 L 591 389" stroke-miterlimit="10"/></g><g transform="translate(-158,-246) scale(1,1)"><path fill="none" stroke="#000000" d="M 580.8373251423759 393.209517756016 L 591 389 L 580.8373251423758 384.790482243984" stroke-miterlimit="10"/></g><g transform="translate(-158,-246) scale(1,1)"><g><path fill="none" stroke="none"/><text fill="#000000" stroke="none" font-family="Arial" font-size="13px" font-style="normal" font-weight="normal" text-decoration="none" x="545" y="381">+calls</text></g></g><g transform="translate(-158,-246) scale(1,1)"><path fill="none" stroke="#000000" d="M 296 389 L 366 389" stroke-miterlimit="10"/></g><g transform="translate(-158,-246) scale(1,1)"><path fill="none" stroke="#000000" d="M 355.83732514237585 393.209517756016 L 366 389 L 355.83732514237585 384.790482243984" stroke-miterlimit="10"/></g><g transform="translate(-158,-246) scale(1,1)"><g><path fill="none" stroke="none"/><text fill="#000000" stroke="none" font-family="Arial" font-size="13px" font-style="normal" font-weight="normal" text-decoration="none" x="306" y="381">+creates</text></g></g></g></svg>