<svg version="1.1" xmlns="http://www.w3.org/2000/svg" xmlns:xlink="http://www.w3.org/1999/xlink" width="337" height="90"><defs/><g><g transform="translate(-190,-397) scale(1,1)"><rect fill="#C0C0C0" stroke="none" x="207" y="414" width="141" height="70" opacity="0.2"/></g><g transform="translate(-190,-397) scale(1,1)"><rect fill="#ffffff" stroke="none" x="200" y="407" width="141" height="70"/></g><g transform="translate(-190,-397) scale(1,1)"><path fill="none" stroke="#000000" d="M 200 407 L 341 407 L 341 477 L 200 477 L 200 407 Z Z" stroke-miterlimit="10"/></g><g transform="translate(-190,-397) scale(1,1)"><path fill="none" stroke="#000000" d="M 200 432 L 341 432" stroke-miterlimit="10"/></g><g transform="translate(-190,-397) scale(1,1)"><path fill="none" stroke="#000000" d="M 200 455 L 341 455" stroke-miterlimit="10"/></g><g transform="translate(-190,-397) scale(1,1)"><g><path fill="none" stroke="none"/><text fill="#000000" stroke="none" font-family="Arial" font-size="13px" font-style="normal" font-weight="bold" text-decoration="none" x="249" y="426.5">Invoker</text></g></g><g transform="translate(-190,-397) scale(1,1)"><g><path fill="none" stroke="none"/><text fill="#000000" stroke="none" font-family="Arial" font-size="13px" font-style="normal" font-weight="normal" text-decoration="none" x="205" y="449.5">+receiver: Receiver</text></g></g><g transform="translate(-190,-397) scale(1,1)"><g><path fill="none" stroke="none"/><text fill="#000000" stroke="none" font-family="Arial" font-size="13px" font-style="normal" font-weight="normal" text-decoration="none" x="205" y="472.5">+callDoSomething()</text></g></g><g transform="translate(-190,-397) scale(1,1)"><rect fill="#C0C0C0" stroke="none" x="423" y="421" width="101" height="57" opacity="0.2"/></g><g transform="translate(-190,-397) scale(1,1)"><rect fill="#ffffff" stroke="none" x="416" y="414" width="101" height="57"/></g><g transform="translate(-190,-397) scale(1,1)"><path fill="none" stroke="#000000" d="M 416 414 L 517 414 L 517 471 L 416 471 L 416 414 Z Z" stroke-miterlimit="10"/></g><g transform="translate(-190,-397) scale(1,1)"><path fill="none" stroke="#000000" d="M 416 439 L 517 439" stroke-miterlimit="10"/></g><g transform="translate(-190,-397) scale(1,1)"><path fill="none" stroke="#000000" d="M 416 449 L 517 449" stroke-miterlimit="10"/></g><g transform="translate(-190,-397) scale(1,1)"><g><path fill="none" stroke="none"/><text fill="#000000" stroke="none" font-family="Arial" font-size="13px" font-style="normal" font-weight="bold" text-decoration="none" x="441" y="433.5">Receiver</text></g></g><g transform="translate(-190,-397) scale(1,1)"><g><path fill="none" stroke="none"/><text fill="#000000" stroke="none" font-family="Arial" font-size="13px" font-style="normal" font-weight="normal" text-decoration="none" x="421" y="466.5">+doSomething()</text></g></g><g transform="translate(-190,-397) scale(1,1)"><path fill="none" stroke="#000000" d="M 342 442 L 415 442" stroke-miterlimit="10"/></g><g transform="translate(-190,-397) scale(1,1)"><path fill="none" stroke="#000000" d="M 404.83732514237585 446.209517756016 L 415 442 L 404.83732514237585 437.790482243984" stroke-miterlimit="10"/></g><g transform="translate(-190,-397) scale(1,1)"><g><path fill="none" stroke="none"/><text fill="#000000" stroke="none" font-family="Arial" font-size="13px" font-style="normal" font-weight="normal" text-decoration="none" x="361" y="434">+calls</text></g></g></g></svg>